<svg viewBox="0 0 24 24"  fill="#75BEFF" xmlns="http://www.w3.org/2000/svg">
<path d="M10.9448 15C10.8207 15 10.6979 14.9805 10.5832 14.9426C10.4686 14.9046 10.3645 14.8491 10.2767 14.779C10.189 14.7089 10.1194 14.6258 10.0719 14.5342C10.0244 14.4427 10 14.3445 10 14.2455V9.75444C10 9.61697 10.0471 9.48212 10.1361 9.36445C10.225 9.24678 10.3526 9.15076 10.5049 9.08676C10.6573 9.02276 10.8286 8.99321 11.0004 9.00131C11.1723 9.00941 11.3381 9.05484 11.4799 9.1327L15.5905 11.3779C15.7168 11.4473 15.82 11.5401 15.8914 11.6484C15.9627 11.7567 16 11.8773 16 11.9996C16 12.122 15.9627 12.2426 15.8914 12.3509C15.82 12.4592 15.7168 12.552 15.5905 12.6214L11.4795 14.8672C11.3222 14.9536 11.1358 14.9999 10.9448 15Z" />
<path d="M12 21.933C6.52201 21.933 2.06601 17.477 2.06601 12C2.06601 6.523 6.52201 2.067 12 2.067C17.478 2.067 21.934 6.523 21.934 12C21.934 17.477 17.478 21.933 12 21.933ZM12 3.067C7.07401 3.067 3.06601 7.074 3.06601 12C3.06601 16.926 7.07401 20.933 12 20.933C16.926 20.933 20.934 16.926 20.934 12C20.934 7.074 16.926 3.067 12 3.067Z" />
</svg>
